<svg width="900" height="1100" viewBox="0 0 900 1100" fill="none" xmlns="http://www.w3.org/2000/svg">
  <rect width="900" height="1100" rx="48" fill="#0f0709"/>
  <rect x="36" y="36" width="828" height="1028" rx="36" fill="url(#paint0_linear)"/>
  <circle cx="450" cy="388" r="170" fill="#d4af37" fill-opacity="0.14"/>
  <circle cx="450" cy="348" r="122" fill="#d4af37"/>
  <path d="M250 818C250 708.58 338.58 620 448 620H452C561.42 620 650 708.58 650 818V872H250V818Z" fill="#5c1622"/>
  <path d="M198 934C198 817.468 292.468 723 409 723H491C607.532 723 702 817.468 702 934V1018H198V934Z" fill="#0f0709" fill-opacity="0.62"/>
  <circle cx="685" cy="208" r="84" fill="#8b1e2e" fill-opacity="0.18"/>
  <circle cx="205" cy="238" r="96" fill="#8b1e2e" fill-opacity="0.24"/>
  <text x="450" y="1000" fill="#fdfaf4" font-family="Arial, sans-serif" font-size="86" font-weight="700" text-anchor="middle">Replace with your photo</text>
  <defs>
    <linearGradient id="paint0_linear" x1="84" y1="126" x2="768" y2="1030" gradientUnits="userSpaceOnUse">
      <stop stop-color="#143028"/>
      <stop offset="1" stop-color="#0f0709"/>
    </linearGradient>
  </defs>
</svg>
